<svg width="765.720703" height="713.993408" viewBox="0 0 765.721 713.993" fill="none" xmlns="http://www.w3.org/2000/svg" xmlns:xlink="http://www.w3.org/1999/xlink">
	<desc>
			Created with Pixso.
	</desc>
	<defs/>
	<path id="Path 3" d="M118.173 45.865C30.7061 125.166 -24.2839 194.632 11.2271 284.514C46.7378 374.395 191.69 318.411 233.806 398.744C275.923 479.076 183.383 551.985 223.279 623.48C263.175 694.975 293.852 740.798 422.064 695.339C550.276 649.879 538.455 534.211 635.955 466.478C733.454 398.744 838.942 297.343 694.176 116.408C549.41 -64.5268 457.251 62.0411 374.163 36.0109C291.075 9.98068 205.64 -33.4356 118.173 45.865Z" stroke="#9E96C6" stroke-opacity="1.000000" stroke-width="1.000000"/>
	<path id="Path 3 Copy" d="M176.137 85.3387C105.021 149.736 60.3098 206.147 89.1829 279.136C118.056 352.125 235.912 306.663 270.156 371.898C304.399 437.133 229.158 496.339 261.596 554.398C294.035 612.457 318.977 649.667 423.223 612.751C527.469 575.836 517.857 481.906 597.131 426.902C676.405 371.898 762.174 289.555 644.469 142.624C526.764 -4.30621 451.833 98.4747 384.276 77.3366C316.719 56.1985 247.254 20.9418 176.137 85.3387Z" stroke="#9E96C6" stroke-opacity="1.000000" stroke-width="1.000000"/>
	<path id="Path 3 Copy 2" d="M235.108 112.53C177.369 165.027 141.068 211.013 164.51 270.514C187.952 330.015 283.639 292.954 311.442 346.133C339.244 399.313 278.156 447.577 304.492 494.907C330.829 542.236 351.08 572.57 435.716 542.477C520.353 512.383 512.55 435.812 576.912 390.973C641.274 346.133 710.91 279.007 615.346 159.23C519.781 39.4521 458.944 123.239 404.095 106.007C349.246 88.7754 292.848 60.0342 235.108 112.53Z" stroke="#9E96C6" stroke-opacity="1.000000" stroke-width="1.000000"/>
	<path id="Path 3 Copy 5" d="M288.007 144.613C241.473 186.766 212.217 223.691 231.109 271.468C250.002 319.245 327.12 289.487 349.527 332.188C371.934 374.889 322.701 413.644 343.927 451.648C365.152 489.652 381.473 514.009 449.685 489.845C517.898 465.681 511.608 404.197 563.48 368.193C615.353 332.188 671.475 278.288 594.456 182.111C517.437 85.9335 468.406 153.212 424.201 139.375C379.996 125.538 334.542 102.46 288.007 144.613Z" stroke="#9E96C6" stroke-opacity="1.000000" stroke-width="1.000000"/>
	<path id="Path 3 Copy 4" d="M318.45 165.223C280.491 199.701 256.626 229.904 272.037 268.983C287.448 308.062 350.356 283.721 368.634 318.648C386.912 353.575 346.751 385.275 364.065 416.36C381.379 447.445 394.693 467.367 450.335 447.602C505.978 427.838 500.847 377.547 543.161 348.098C585.474 318.648 631.254 274.561 568.428 195.894C505.602 117.226 465.606 172.256 429.547 160.938C393.487 149.621 356.41 130.744 318.45 165.223Z" stroke="#9E96C6" stroke-opacity="1.000000" stroke-width="1.000000"/>
	<path id="Path 3 Copy 3" d="M349.896 180.469C319.026 208.385 299.617 232.84 312.151 264.481C324.684 296.122 375.844 276.414 390.708 304.694C405.573 332.974 372.912 358.64 386.993 383.809C401.073 408.977 411.901 425.108 457.152 409.105C502.404 393.102 498.231 352.383 532.643 328.538C567.054 304.694 604.285 268.997 553.191 205.302C502.098 141.607 469.571 186.163 440.246 177C410.921 167.836 380.767 152.552 349.896 180.469Z" stroke="#9E96C6" stroke-opacity="1.000000" stroke-width="1.000000"/>
</svg>
